<?xml version="1.0"?>
<svg xmlns="http://www.w3.org/2000/svg" xmlns:xlink="http://www.w3.org/1999/xlink" xmlns:svgjs="http://svgjs.com/svgjs" version="1.1" width="512" height="512" x="0" y="0" viewBox="0 0 512 512" style="enable-background:new 0 0 512 512" xml:space="preserve" class=""><g><path xmlns="http://www.w3.org/2000/svg" d="m512 256c0 141.386719-114.613281 256-256 256s-256-114.613281-256-256 114.613281-256 256-256 256 114.613281 256 256zm0 0" fill="#97aabd" data-original="#414952" style="" class=""/><path xmlns="http://www.w3.org/2000/svg" d="m280.625 510.816406c129.828125-12.394531 231.375-121.738281 231.375-254.816406 0-31.785156-5.808594-62.214844-16.398438-90.296875l-72.570312-72.570313-306.722656 25.273438-27.339844 55.378906 203.457031 203.453125-103.75 41.628907zm0 0" fill="#314455" data-original="#23272b" style="" class=""/><path xmlns="http://www.w3.org/2000/svg" d="m88.96875 93.132812v80.652344h53.078125v-27.578125h87.417969v219.585938h-40.789063v53.074219h134.648438v-53.074219h-40.789063v-219.585938h87.417969v27.578125h53.078125v-80.652344zm0 0" fill="#9e5a63" data-original="#ffffff" style="" class=""/><path xmlns="http://www.w3.org/2000/svg" d="m255.59375 93.132812v325.734376h67.730469v-53.074219h-40.789063v-219.585938h87.417969v27.578125h53.078125v-80.652344zm0 0" fill="#9e5a63" data-original="#e9edf5" style="" class=""/></g></svg>
